<svg width="24" height="24" viewBox="0 0 24 24" fill="none" xmlns="http://www.w3.org/2000/svg">
<rect width="24" height="24" fill="#1E1E1E"/>
<g id="home/orders" clip-path="url(#clip0_0_1)">
<rect width="1440" height="1024" transform="translate(-984 -48)" fill="#F7F7F7"/>
<g id="Frame 1366">
<g id="Frame 1368">
<g id="Frame 1367">
<g id="Group 102">
<rect id="Rectangle 1192" x="-175.5" y="-10.5" width="217" height="46" rx="4.5" stroke="#BEBEBE"/>
<g id="Back">
<g id="Vector">
<path d="M18 9.00009C18 9.20009 17.9333 9.33342 17.8 9.46676L12.4667 14.8001C12.3333 14.9334 12.1333 15.0001 12 15.0001C11.8 15.0001 11.6667 14.9334 11.5333 14.8001L6.2 9.46676C5.93333 9.20009 5.93333 8.80009 6.2 8.53342C6.36278 8.37065 6.57524 8.30723 6.77672 8.34318C6.90532 8.36612 7.02944 8.42954 7.13333 8.53342L12 13.4001L16.8667 8.53342C16.9706 8.42954 17.0947 8.36612 17.2233 8.34318C17.4248 8.30723 17.6372 8.37065 17.8 8.53342C17.9333 8.66676 18 8.80009 18 9.00009Z" fill="#5B4DFF"/>
<path d="M7.13333 8.53342L12 13.4001L16.8667 8.53342C16.9706 8.42954 17.0947 8.36612 17.2233 8.34318L6.77672 8.34318C6.90532 8.36612 7.02944 8.42954 7.13333 8.53342Z" fill="#5B4DFF"/>
</g>
</g>
</g>
</g>
</g>
</g>
</g>
<defs>
<clipPath id="clip0_0_1">
<rect width="1440" height="1024" fill="white" transform="translate(-984 -48)"/>
</clipPath>
</defs>
</svg>
