<svg xmlns="http://www.w3.org/2000/svg" width="20" height="20" viewBox="0 0 20 20" fill="none">
  <g clip-path="url(#clip0_28_926)">
    <path d="M15.4151 3.0452H14.6446V1.50408H13.1035V3.0452H6.93898V1.50408H5.39786V3.0452H4.6273C3.77968 3.0452 3.08618 3.7387 3.08618 4.58631V15.3741C3.08618 16.2218 3.77968 16.9153 4.6273 16.9153H15.4151C16.2627 16.9153 16.9562 16.2218 16.9562 15.3741V4.58631C16.9562 3.7387 16.2627 3.0452 15.4151 3.0452ZM15.4151 15.3741H4.6273V7.66855H15.4151V15.3741ZM4.6273 6.12743V4.58631H15.4151V6.12743H4.6273ZM8.91161 14.1875L13.481 9.61807L12.6642 8.80127L8.91161 12.5539L7.28573 10.928L6.46894 11.7448L8.91161 14.1875Z" fill="#3A3A3A"/>
  </g>
  <defs>
    <clipPath id="clip0_28_926">
      <rect width="18.4934" height="18.4934" fill="white" transform="translate(0.774658 0.734035)"/>
    </clipPath>
  </defs>
</svg>