<svg width="19" height="19" viewBox="0 0 19 19" fill="none" xmlns="http://www.w3.org/2000/svg">
<g id="Plus/cross" opacity="0.8">
<path id="Rectangle 464" d="M12.683 5.01041L5.01014 12.6832C4.72786 12.9655 4.72786 13.4232 5.01014 13.7055L5.0109 13.7062C5.29318 13.9885 5.75085 13.9885 6.03313 13.7062L13.7059 6.0334C13.9882 5.75112 13.9882 5.29345 13.7059 5.01117L13.7052 5.01041C13.4229 4.72813 12.9652 4.72813 12.683 5.01041Z" fill="white"/>
<path id="Rectangle 465" d="M5.01016 6.03274L12.683 13.7055C12.9653 13.9878 13.4229 13.9878 13.7052 13.7055L13.706 13.7048C13.9882 13.4225 13.9882 12.9648 13.706 12.6826L6.03315 5.00974C5.75087 4.72746 5.2932 4.72746 5.01092 5.00974L5.01016 5.0105C4.72788 5.29278 4.72788 5.75045 5.01016 6.03274Z" fill="white"/>
</g>
</svg>
