<svg xmlns="http://www.w3.org/2000/svg" width="20" height="19" viewBox="0 0 20 19" fill="none">
  <g clip-path="url(#clip0_28_915)">
    <path d="M13.6198 10.3979C14.6755 11.1145 15.4152 12.0854 15.4152 13.3799V15.6916H18.4975V13.3799C18.4975 11.7001 15.7466 10.7061 13.6198 10.3979Z" fill="#3A3A3A"/>
    <path d="M12.3331 9.52719C14.036 9.52719 15.4153 8.14789 15.4153 6.44495C15.4153 4.74202 14.036 3.36272 12.3331 3.36272C11.9709 3.36272 11.6319 3.43977 11.3082 3.54765C11.9478 4.34133 12.3331 5.35076 12.3331 6.44495C12.3331 7.53915 11.9478 8.54858 11.3082 9.34226C11.6319 9.45013 11.9709 9.52719 12.3331 9.52719Z" fill="#3A3A3A"/>
    <path d="M7.7098 9.52719C9.41274 9.52719 10.792 8.14789 10.792 6.44495C10.792 4.74202 9.41274 3.36272 7.7098 3.36272C6.00686 3.36272 4.62756 4.74202 4.62756 6.44495C4.62756 8.14789 6.00686 9.52719 7.7098 9.52719ZM7.7098 4.90384C8.55742 4.90384 9.25092 5.59734 9.25092 6.44495C9.25092 7.29257 8.55742 7.98607 7.7098 7.98607C6.86219 7.98607 6.16868 7.29257 6.16868 6.44495C6.16868 5.59734 6.86219 4.90384 7.7098 4.90384Z" fill="#3A3A3A"/>
    <path d="M7.7097 10.2979C5.65231 10.2979 1.54523 11.3305 1.54523 13.3802V15.6918H13.8742V13.3802C13.8742 11.3305 9.76709 10.2979 7.7097 10.2979ZM12.3331 14.1507H3.08635V13.3879C3.24046 12.8331 5.62919 11.839 7.7097 11.839C9.79021 11.839 12.1789 12.8331 12.3331 13.3802V14.1507Z" fill="#3A3A3A"/>
  </g>
  <defs>
    <clipPath id="clip0_28_915">
      <rect width="18.4934" height="18.4934" fill="white" transform="translate(0.774719 0.28064)"/>
    </clipPath>
  </defs>
</svg>