<svg xmlns="http://www.w3.org/2000/svg" width="12" height="12" viewBox="0 0 12 12" fill="none">
  <g clip-path="url(#clip0_28_955)">
    <path d="M10.9063 10.4042L9.9375 9.49247M5.82031 9.94836C6.4246 9.94836 7.02297 9.83633 7.58125 9.61869C8.13954 9.40104 8.64681 9.08203 9.07411 8.67987C9.5014 8.27771 9.84035 7.80028 10.0716 7.27483C10.3029 6.74938 10.4219 6.18621 10.4219 5.61747C10.4219 5.04873 10.3029 4.48556 10.0716 3.96012C9.84035 3.43467 9.5014 2.95724 9.07411 2.55508C8.64681 2.15292 8.13954 1.83391 7.58125 1.61626C7.02297 1.39861 6.4246 1.28659 5.82031 1.28659C4.5999 1.28659 3.42948 1.74288 2.56652 2.55508C1.70356 3.36727 1.21875 4.46885 1.21875 5.61747C1.21875 6.76609 1.70356 7.86767 2.56652 8.67987C3.42948 9.49207 4.5999 9.94836 5.82031 9.94836V9.94836Z" stroke="white" stroke-width="0.97259" stroke-linecap="round" stroke-linejoin="round"/>
  </g>
  <defs>
    <clipPath id="clip0_28_955">
      <rect width="11.625" height="10.9412" fill="white" transform="translate(0.250061 0.374847)"/>
    </clipPath>
  </defs>
</svg>